STARTFONT 2.1
FONT -thai-dbthaitext-bold-i-normal--25-180-100-100-p-75-tis620-0
SIZE 18 100 100
FONTBOUNDINGBOX 34 28 -9 -10
STARTPROPERTIES 25
FOUNDRY "thai"
FAMILY_NAME "dbthaitext"
WEIGHT_NAME "bold"
SLANT "i"
SETWIDTH_NAME "normal"
ADD_STYLE_NAME ""
PIXEL_SIZE 25
POINT_SIZE 180
RESOLUTION_X 100
RESOLUTION_Y 100
SPACING "p"
AVERAGE_WIDTH 75
CHARSET_REGISTRY "tis620"
CHARSET_ENCODING "0"
FONT "-thai-dbthaitext-bold-i-normal--25-180-100-100-p-75-tis620-0"
COPYRIGHT "Typeface (c) The Monotype Corporation plc. Data (c) The Monotype Corporation plc/Type Solutions Inc. 1990-1992. All Rights Reserved"
RAW_PIXELSIZE 1000
RAW_POINTSIZE 723
RAW_ASCENT 738
RAW_DESCENT 408
RAW_AVERAGE_WIDTH 3023
FACE_NAME "DBThaiTextBoldItalic"
DEFAULT_CHAR 0
FONT_ASCENT 18
FONT_DESCENT 10
ENDPROPERTIES
CHARS 190
STARTCHAR space
ENCODING 32
SWIDTH 240 0
DWIDTH 6 0
BBX 0 0 0 0
BITMAP
ENDCHAR
STARTCHAR exclam
ENCODING 33
SWIDTH 200 0
DWIDTH 5 0
BBX 5 11 0 -1
BITMAP
18
18
30
30
20
20
20
00
40
40
80
ENDCHAR
STARTCHAR quotedbl
ENCODING 34
SWIDTH 280 0
DWIDTH 7 0
BBX 6 3 1 7
BITMAP
ec
d8
98
ENDCHAR
STARTCHAR numbersign
ENCODING 35
SWIDTH 320 0
DWIDTH 8 0
BBX 10 10 -1 0
BITMAP
06c0
0480
0dc0
3f80
3300
1200
3680
ff00
ec00
d800
ENDCHAR
STARTCHAR dollar
ENCODING 36
SWIDTH 320 0
DWIDTH 8 0
BBX 9 13 -1 -2
BITMAP
0200
0f00
1f80
3580
3400
3c00
1e00
0f00
d600
de00
fc00
2000
2000
ENDCHAR
STARTCHAR percent
ENCODING 37
SWIDTH 520 0
DWIDTH 13 0
BBX 11 10 1 0
BITMAP
3840
7c80
cd00
da00
f600
0dc0
1b60
3660
66c0
c380
ENDCHAR
STARTCHAR ampersand
ENCODING 38
SWIDTH 400 0
DWIDTH 10 0
BBX 9 10 0 0
BITMAP
0700
1b00
1b00
1e00
1800
3c80
4f00
c600
ce00
fb00
ENDCHAR
STARTCHAR apostrophe
ENCODING 39
SWIDTH 120 0
DWIDTH 3 0
BBX 3 3 0 7
BITMAP
e0
c0
c0
ENDCHAR
STARTCHAR parenleft
ENCODING 40
SWIDTH 200 0
DWIDTH 5 0
BBX 6 13 0 -3
BITMAP
0c
18
30
20
60
40
c0
c0
c0
80
80
c0
c0
ENDCHAR
STARTCHAR parenright
ENCODING 41
SWIDTH 200 0
DWIDTH 5 0
BBX 6 13 -2 -3
BITMAP
08
04
04
04
04
0c
08
08
10
30
20
40
c0
ENDCHAR
STARTCHAR asterisk
ENCODING 42
SWIDTH 240 0
DWIDTH 6 0
BBX 5 5 0 5
BITMAP
10
f8
60
f0
50
ENDCHAR
STARTCHAR plus
ENCODING 43
SWIDTH 320 0
DWIDTH 8 0
BBX 7 7 1 0
BITMAP
08
18
1a
fe
b0
30
30
ENDCHAR
STARTCHAR comma
ENCODING 44
SWIDTH 200 0
DWIDTH 5 0
BBX 3 3 1 -1
BITMAP
60
60
40
ENDCHAR
STARTCHAR minus
ENCODING 45
SWIDTH 200 0
DWIDTH 5 0
BBX 4 3 0 2
BITMAP
30
f0
c0
ENDCHAR
STARTCHAR period
ENCODING 46
SWIDTH 160 0
DWIDTH 4 0
BBX 2 2 1 0
BITMAP
c0
c0
ENDCHAR
STARTCHAR slash
ENCODING 47
SWIDTH 160 0
DWIDTH 4 0
BBX 7 10 -2 0
BITMAP
02
04
08
08
10
10
20
40
40
80
ENDCHAR
STARTCHAR 0
ENCODING 48
SWIDTH 320 0
DWIDTH 8 0
BBX 8 10 0 0
BITMAP
1f
3f
23
63
63
c6
c6
cc
c8
70
ENDCHAR
STARTCHAR 1
ENCODING 49
SWIDTH 320 0
DWIDTH 8 0
BBX 5 10 2 0
BITMAP
18
38
f0
30
30
20
60
60
e0
c0
ENDCHAR
STARTCHAR 2
ENCODING 50
SWIDTH 320 0
DWIDTH 8 0
BBX 9 11 -1 -1
BITMAP
0f80
1980
1980
0180
0300
0600
1800
3000
6000
fe00
c000
ENDCHAR
STARTCHAR 3
ENCODING 51
SWIDTH 320 0
DWIDTH 8 0
BBX 8 10 0 0
BITMAP
1f
33
33
02
0c
1e
06
c4
cc
70
ENDCHAR
STARTCHAR 4
ENCODING 52
SWIDTH 320 0
DWIDTH 8 0
BBX 9 10 -1 0
BITMAP
0380
0700
0f00
1b00
3600
4680
ff00
8c00
0c00
1c00
ENDCHAR
STARTCHAR 5
ENCODING 53
SWIDTH 320 0
DWIDTH 8 0
BBX 9 11 0 0
BITMAP
0180
0f80
1000
1000
3c00
3e00
6600
0600
c600
cc00
f800
ENDCHAR
STARTCHAR 6
ENCODING 54
SWIDTH 320 0
DWIDTH 8 0
BBX 8 10 0 0
BITMAP
0e
13
20
68
7e
e6
c6
84
cc
78
ENDCHAR
STARTCHAR 7
ENCODING 55
SWIDTH 320 0
DWIDTH 8 0
BBX 9 11 0 0
BITMAP
0380
3f80
6300
0600
0c00
1800
1800
3000
6000
6000
c000
ENDCHAR
STARTCHAR 8
ENCODING 56
SWIDTH 320 0
DWIDTH 8 0
BBX 9 10 -1 0
BITMAP
0f00
1980
3180
3300
1e00
7700
e700
e600
ee00
7800
ENDCHAR
STARTCHAR 9
ENCODING 57
SWIDTH 320 0
DWIDTH 8 0
BBX 8 10 0 0
BITMAP
0e
3f
23
63
67
7e
36
cc
f8
70
ENDCHAR
STARTCHAR colon
ENCODING 58
SWIDTH 160 0
DWIDTH 4 0
BBX 4 8 0 0
BITMAP
30
30
00
00
00
00
c0
c0
ENDCHAR
STARTCHAR semicolon
ENCODING 59
SWIDTH 200 0
DWIDTH 5 0
BBX 5 9 0 -1
BITMAP
10
38
10
00
00
00
60
60
40
ENDCHAR
STARTCHAR less
ENCODING 60
SWIDTH 320 0
DWIDTH 8 0
BBX 8 7 0 0
BITMAP
01
0f
3c
e0
f0
3c
04
ENDCHAR
STARTCHAR equal
ENCODING 61
SWIDTH 320 0
DWIDTH 8 0
BBX 9 6 0 0
BITMAP
0180
3f80
6000
0700
fe00
c000
ENDCHAR
STARTCHAR greater
ENCODING 62
SWIDTH 320 0
DWIDTH 8 0
BBX 8 6 0 1
BITMAP
20
38
1e
07
1e
f0
ENDCHAR
STARTCHAR question
ENCODING 63
SWIDTH 360 0
DWIDTH 9 0
BBX 7 11 2 0
BITMAP
08
3e
6e
c6
04
1c
30
20
00
20
40
ENDCHAR
STARTCHAR at
ENCODING 64
SWIDTH 560 0
DWIDTH 14 0
BBX 14 12 0 -2
BITMAP
03f0
0c08
100c
23e4
4444
48c8
d888
99b0
cee0
c000
7100
3f00
ENDCHAR
STARTCHAR A
ENCODING 65
SWIDTH 400 0
DWIDTH 10 0
BBX 10 10 -1 0
BITMAP
01c0
03c0
07c0
06c0
0ec0
1cc0
39c0
3fc0
70c0
e0c0
ENDCHAR
STARTCHAR B
ENCODING 66
SWIDTH 400 0
DWIDTH 10 0
BBX 11 10 -1 0
BITMAP
1fc0
18e0
18e0
30c0
3f80
21c0
61c0
6180
6380
fe00
ENDCHAR
STARTCHAR C
ENCODING 67
SWIDTH 400 0
DWIDTH 10 0
BBX 10 10 0 0
BITMAP
0f80
39c0
30c0
6000
4000
c000
c180
c300
fe00
7c00
ENDCHAR
STARTCHAR D
ENCODING 68
SWIDTH 400 0
DWIDTH 10 0
BBX 12 10 -1 0
BITMAP
1fe0
18f0
10f0
30f0
30f0
30e0
61e0
61c0
6380
ff00
ENDCHAR
STARTCHAR E
ENCODING 69
SWIDTH 360 0
DWIDTH 9 0
BBX 12 12 -1 -1
BITMAP
0070
1ff0
1c00
1800
30c0
3fc0
3000
7000
6000
6180
ff80
e000
ENDCHAR
STARTCHAR F
ENCODING 70
SWIDTH 360 0
DWIDTH 9 0
BBX 11 11 -1 0
BITMAP
00e0
1fe0
1800
3800
3180
3f80
7000
6000
6000
e000
c000
ENDCHAR
STARTCHAR G
ENCODING 71
SWIDTH 440 0
DWIDTH 11 0
BBX 11 10 0 0
BITMAP
0fc0
1ce0
30e0
6000
6040
e3c0
e0c0
e180
f780
7e80
ENDCHAR
STARTCHAR H
ENCODING 72
SWIDTH 400 0
DWIDTH 10 0
BBX 12 10 -1 0
BITMAP
1c30
1870
1860
30e0
3fe0
30c0
61c0
61c0
e180
c380
ENDCHAR
STARTCHAR I
ENCODING 73
SWIDTH 160 0
DWIDTH 4 0
BBX 5 10 -1 0
BITMAP
18
38
30
30
30
60
60
60
e0
c0
ENDCHAR
STARTCHAR J
ENCODING 74
SWIDTH 320 0
DWIDTH 8 0
BBX 9 10 0 0
BITMAP
0180
0380
0300
0300
0700
0600
c600
cc00
fc00
7800
ENDCHAR
STARTCHAR K
ENCODING 75
SWIDTH 400 0
DWIDTH 10 0
BBX 12 10 -1 0
BITMAP
1870
18c0
1b80
3600
3e00
3e00
6600
6700
6300
c380
ENDCHAR
STARTCHAR L
ENCODING 76
SWIDTH 360 0
DWIDTH 9 0
BBX 8 11 -1 -1
BITMAP
1c
18
18
38
30
30
70
60
63
ff
e0
ENDCHAR
STARTCHAR M
ENCODING 77
SWIDTH 480 0
DWIDTH 12 0
BBX 13 10 -1 0
BITMAP
1c38
1c78
3c70
3cb0
3df0
6d60
6f60
6e60
eec0
ccc0
ENDCHAR
STARTCHAR N
ENCODING 78
SWIDTH 400 0
DWIDTH 10 0
BBX 12 10 -1 0
BITMAP
1c30
1c70
3c60
3660
36e0
76c0
63c0
63c0
e380
c380
ENDCHAR
STARTCHAR O
ENCODING 79
SWIDTH 440 0
DWIDTH 11 0
BBX 11 10 0 0
BITMAP
07c0
1ce0
30e0
60e0
e0e0
e0c0
e1c0
e180
e700
7c00
ENDCHAR
STARTCHAR P
ENCODING 80
SWIDTH 360 0
DWIDTH 9 0
BBX 10 10 0 0
BITMAP
1fc0
18c0
18c0
30c0
3180
3f00
6000
6000
4000
c000
ENDCHAR
STARTCHAR Q
ENCODING 81
SWIDTH 440 0
DWIDTH 11 0
BBX 11 11 0 -1
BITMAP
07c0
1ce0
30e0
60e0
e0e0
e0c0
c3c0
e780
e780
7d80
0100
ENDCHAR
STARTCHAR R
ENCODING 82
SWIDTH 400 0
DWIDTH 10 0
BBX 12 10 -1 0
BITMAP
1fe0
1870
1870
30e0
30e0
3fc0
71e0
71c0
63c0
c3c0
ENDCHAR
STARTCHAR S
ENCODING 83
SWIDTH 360 0
DWIDTH 9 0
BBX 10 10 0 0
BITMAP
0f80
39c0
30c0
3000
3f00
0f80
0380
c380
e700
7c00
ENDCHAR
STARTCHAR T
ENCODING 84
SWIDTH 360 0
DWIDTH 9 0
BBX 9 11 1 0
BITMAP
0380
ff80
9800
1800
3800
3000
3000
7000
6000
6000
e000
ENDCHAR
STARTCHAR U
ENCODING 85
SWIDTH 400 0
DWIDTH 10 0
BBX 12 10 0 0
BITMAP
3c30
3c70
3860
78e0
71e0
71c0
f3c0
f380
e780
7e00
ENDCHAR
STARTCHAR V
ENCODING 86
SWIDTH 360 0
DWIDTH 9 0
BBX 9 10 2 0
BITMAP
c180
c300
c700
c600
cc00
d800
d800
f000
e000
c000
ENDCHAR
STARTCHAR W
ENCODING 87
SWIDTH 520 0
DWIDTH 13 0
BBX 13 10 2 0
BITMAP
c318
c730
c630
ca60
da40
d2c0
f680
e700
e700
c600
ENDCHAR
STARTCHAR X
ENCODING 88
SWIDTH 360 0
DWIDTH 9 0
BBX 12 10 -1 0
BITMAP
0c70
0ce0
0fc0
0780
0600
0e00
1f00
3b00
7300
e380
ENDCHAR
STARTCHAR Y
ENCODING 89
SWIDTH 360 0
DWIDTH 9 0
BBX 9 10 2 0
BITMAP
e380
e700
6e00
6c00
7800
7000
6000
6000
e000
c000
ENDCHAR
STARTCHAR Z
ENCODING 90
SWIDTH 360 0
DWIDTH 9 0
BBX 12 12 -2 -1
BITMAP
0070
1ff0
1ee0
01c0
0380
0700
0e00
1c00
3800
7180
ff80
e000
ENDCHAR
STARTCHAR bracketleft
ENCODING 91
SWIDTH 200 0
DWIDTH 5 0
BBX 8 13 -1 -3
BITMAP
0f
0c
08
18
18
10
30
30
20
60
60
40
f0
ENDCHAR
STARTCHAR backslash
ENCODING 92
SWIDTH 160 0
DWIDTH 4 0
BBX 1 10 1 0
BITMAP
80
80
80
80
80
80
80
80
80
80
ENDCHAR
STARTCHAR bracketright
ENCODING 93
SWIDTH 200 0
DWIDTH 5 0
BBX 8 13 -2 -3
BITMAP
0f
02
06
06
04
0c
0c
08
18
18
10
30
f0
ENDCHAR
STARTCHAR asciicircum
ENCODING 94
SWIDTH 320 0
DWIDTH 8 0
BBX 7 6 0 4
BITMAP
0e
0e
1e
36
66
c6
ENDCHAR
STARTCHAR underscore
ENCODING 95
SWIDTH 320 0
DWIDTH 8 0
BBX 9 1 -1 -3
BITMAP
ff80
ENDCHAR
STARTCHAR grave
ENCODING 96
SWIDTH 160 0
DWIDTH 4 0
BBX 4 4 0 2
BITMAP
70
f0
e0
e0
ENDCHAR
STARTCHAR a
ENCODING 97
SWIDTH 320 0
DWIDTH 8 0
BBX 8 8 0 0
BITMAP
1e
3f
33
0f
7e
c6
ce
f9
ENDCHAR
STARTCHAR b
ENCODING 98
SWIDTH 360 0
DWIDTH 9 0
BBX 9 10 -1 0
BITMAP
1c00
1800
3f00
3f80
3b80
7180
6380
6300
e600
dc00
ENDCHAR
STARTCHAR c
ENCODING 99
SWIDTH 320 0
DWIDTH 8 0
BBX 8 8 0 0
BITMAP
1e
3f
73
60
e0
c6
ec
78
ENDCHAR
STARTCHAR d
ENCODING 100
SWIDTH 360 0
DWIDTH 9 0
BBX 10 10 0 0
BITMAP
00c0
0180
1d80
3780
6300
6300
e700
c600
ee00
f200
ENDCHAR
STARTCHAR e
ENCODING 101
SWIDTH 320 0
DWIDTH 8 0
BBX 8 8 0 0
BITMAP
1e
37
73
63
ff
c0
ee
78
ENDCHAR
STARTCHAR f
ENCODING 102
SWIDTH 200 0
DWIDTH 5 0
BBX 6 10 0 0
BITMAP
0c
10
10
78
20
60
60
60
c0
c0
ENDCHAR
STARTCHAR g
ENCODING 103
SWIDTH 360 0
DWIDTH 9 0
BBX 10 12 -1 -3
BITMAP
0040
0ec0
1b80
3180
3180
6180
6300
7700
7b00
0600
ce00
7800
ENDCHAR
STARTCHAR h
ENCODING 104
SWIDTH 360 0
DWIDTH 9 0
BBX 9 10 -1 0
BITMAP
1800
1800
3700
3f80
3380
7300
6300
6700
e700
c600
ENDCHAR
STARTCHAR i
ENCODING 105
SWIDTH 160 0
DWIDTH 4 0
BBX 5 11 -1 0
BITMAP
08
18
00
30
30
30
60
60
60
c0
c0
ENDCHAR
STARTCHAR j
ENCODING 106
SWIDTH 160 0
DWIDTH 4 0
BBX 7 14 -2 -3
BITMAP
02
06
00
0c
0c
08
18
18
10
30
30
20
60
c0
ENDCHAR
STARTCHAR k
ENCODING 107
SWIDTH 320 0
DWIDTH 8 0
BBX 9 10 -1 0
BITMAP
1800
1800
3180
3700
3c00
7c00
7c00
6c00
cc00
ce00
ENDCHAR
STARTCHAR l
ENCODING 108
SWIDTH 160 0
DWIDTH 4 0
BBX 5 10 -1 0
BITMAP
18
18
30
30
30
60
60
60
c0
c0
ENDCHAR
STARTCHAR m
ENCODING 109
SWIDTH 520 0
DWIDTH 13 0
BBX 13 8 -1 0
BITMAP
3778
3ff8
3398
7338
6730
6630
e670
ce60
ENDCHAR
STARTCHAR n
ENCODING 110
SWIDTH 360 0
DWIDTH 9 0
BBX 9 8 -1 0
BITMAP
3700
3f80
3180
7380
6300
6300
e700
c600
ENDCHAR
STARTCHAR o
ENCODING 111
SWIDTH 360 0
DWIDTH 9 0
BBX 8 8 0 0
BITMAP
1e
37
63
43
c3
c6
cc
78
ENDCHAR
STARTCHAR p
ENCODING 112
SWIDTH 360 0
DWIDTH 9 0
BBX 10 11 -1 -3
BITMAP
1b80
1fc0
1cc0
38c0
31c0
3180
7b80
6f00
6000
e000
c000
ENDCHAR
STARTCHAR q
ENCODING 113
SWIDTH 360 0
DWIDTH 9 0
BBX 9 11 0 -3
BITMAP
1d80
3780
6300
6300
c300
c600
ce00
f600
0c00
0c00
0c00
ENDCHAR
STARTCHAR r
ENCODING 114
SWIDTH 240 0
DWIDTH 6 0
BBX 7 8 0 0
BITMAP
36
3e
30
70
60
60
c0
c0
ENDCHAR
STARTCHAR s
ENCODING 115
SWIDTH 320 0
DWIDTH 8 0
BBX 8 8 0 0
BITMAP
1e
3f
73
78
3e
c6
fc
78
ENDCHAR
STARTCHAR t
ENCODING 116
SWIDTH 200 0
DWIDTH 5 0
BBX 5 10 0 0
BITMAP
18
30
30
78
60
60
60
c0
c0
e0
ENDCHAR
STARTCHAR u
ENCODING 117
SWIDTH 360 0
DWIDTH 9 0
BBX 9 8 0 0
BITMAP
3180
7380
6300
6300
6700
e600
ee00
f200
ENDCHAR
STARTCHAR v
ENCODING 118
SWIDTH 320 0
DWIDTH 8 0
BBX 7 8 2 0
BITMAP
c6
cc
cc
d8
d0
f0
e0
e0
ENDCHAR
STARTCHAR w
ENCODING 119
SWIDTH 440 0
DWIDTH 11 0
BBX 12 8 1 0
BITMAP
ef30
ee60
fee0
dac0
fdc0
f780
e700
cf00
ENDCHAR
STARTCHAR x
ENCODING 120
SWIDTH 320 0
DWIDTH 8 0
BBX 10 8 -1 0
BITMAP
19c0
1b80
1b00
0e00
1c00
3e00
7600
e600
ENDCHAR
STARTCHAR y
ENCODING 121
SWIDTH 320 0
DWIDTH 8 0
BBX 10 11 -1 -3
BITMAP
38c0
3980
3b80
1b00
1e00
1e00
1c00
1800
1000
7000
e000
ENDCHAR
STARTCHAR z
ENCODING 122
SWIDTH 280 0
DWIDTH 7 0
BBX 9 10 -1 -1
BITMAP
0080
1f80
2300
0600
0c00
1800
3000
6200
fe00
8000
ENDCHAR
STARTCHAR braceleft
ENCODING 123
SWIDTH 240 0
DWIDTH 6 0
BBX 7 13 0 -3
BITMAP
0e
18
18
18
30
70
e0
60
60
60
c0
e0
e0
ENDCHAR
STARTCHAR bar
ENCODING 124
SWIDTH 160 0
DWIDTH 4 0
BBX 5 13 -1 -3
BITMAP
08
18
10
10
10
20
20
20
40
40
40
c0
80
ENDCHAR
STARTCHAR braceright
ENCODING 125
SWIDTH 240 0
DWIDTH 6 0
BBX 7 13 -1 -3
BITMAP
0e
06
06
0c
0c
0e
0c
18
18
30
30
f0
c0
ENDCHAR
STARTCHAR asciitilde
ENCODING 126
SWIDTH 320 0
DWIDTH 8 0
BBX 7 3 1 2
BITMAP
20
72
8c
ENDCHAR
STARTCHAR exclamdown
ENCODING 161
SWIDTH 360 0
DWIDTH 9 0
BBX 9 9 0 0
BITMAP
0f00
3980
7980
3180
2100
6300
4300
c200
c600
ENDCHAR
STARTCHAR cent
ENCODING 162
SWIDTH 360 0
DWIDTH 9 0
BBX 8 9 1 0
BITMAP
30
6b
aa
ea
16
24
24
2c
f8
ENDCHAR
STARTCHAR sterling
ENCODING 163
SWIDTH 400 0
DWIDTH 10 0
BBX 9 9 1 0
BITMAP
1400
7d80
e500
9900
e900
1a00
1200
1200
7c00
ENDCHAR
STARTCHAR currency
ENCODING 164
SWIDTH 360 0
DWIDTH 9 0
BBX 8 9 1 0
BITMAP
1e
33
4b
ff
ea
f2
46
c4
cc
ENDCHAR
STARTCHAR yen
ENCODING 165
SWIDTH 360 0
DWIDTH 9 0
BBX 8 9 1 0
BITMAP
0a
3f
49
ff
ea
f2
46
c4
cc
ENDCHAR
STARTCHAR brokenbar
ENCODING 166
SWIDTH 440 0
DWIDTH 11 0
BBX 12 9 0 0
BITMAP
1200
7f30
f720
fe60
fc60
3ec0
7fc0
7bc0
7880
ENDCHAR
STARTCHAR section
ENCODING 167
SWIDTH 280 0
DWIDTH 7 0
BBX 6 9 1 0
BITMAP
08
14
14
98
88
c8
50
50
60
ENDCHAR
STARTCHAR diaeresis
ENCODING 168
SWIDTH 360 0
DWIDTH 9 0
BBX 7 9 1 0
BITMAP
3c
66
86
66
b4
f4
3c
38
38
ENDCHAR
STARTCHAR copyright
ENCODING 169
SWIDTH 400 0
DWIDTH 10 0
BBX 9 9 0 0
BITMAP
0f00
3b80
2180
6100
f300
e700
7b80
7780
4700
ENDCHAR
STARTCHAR ordfeminine
ENCODING 170
SWIDTH 360 0
DWIDTH 9 0
BBX 9 9 1 0
BITMAP
1080
6b00
9e00
ea00
1600
2400
2400
2c00
f800
ENDCHAR
STARTCHAR guillemotleft
ENCODING 171
SWIDTH 400 0
DWIDTH 10 0
BBX 10 9 1 0
BITMAP
1440
7d80
e700
9500
e900
1200
1200
1200
7c00
ENDCHAR
STARTCHAR notsign
ENCODING 172
SWIDTH 480 0
DWIDTH 12 0
BBX 12 9 0 0
BITMAP
0e00
3330
7320
3360
6260
4640
efc0
bfc0
ed80
ENDCHAR
STARTCHAR hyphen
ENCODING 173
SWIDTH 480 0
DWIDTH 12 0
BBX 12 13 1 -4
BITMAP
0e00
3330
7320
3360
6260
4640
e6c0
b6c0
ef80
0880
1580
3b00
1e00
ENDCHAR
STARTCHAR registered
ENCODING 174
SWIDTH 400 0
DWIDTH 10 0
BBX 10 13 0 -4
BITMAP
0380
0cc0
1c40
0840
1080
1080
7080
9100
e100
2900
fa00
9e00
e600
ENDCHAR
STARTCHAR macron
ENCODING 175
SWIDTH 400 0
DWIDTH 10 0
BBX 11 13 -1 -4
BITMAP
03c0
0ee0
1e60
0c60
18c0
18c0
78c0
d180
f180
0980
7b00
ff00
fb00
ENDCHAR
STARTCHAR degree
ENCODING 176
SWIDTH 320 0
DWIDTH 8 0
BBX 12 14 -2 -5
BITMAP
01c0
07f0
0f80
00c0
0fc0
0bc0
0f80
0380
0380
0200
1f00
7f00
fe00
d400
ENDCHAR
STARTCHAR plusminus
ENCODING 177
SWIDTH 480 0
DWIDTH 12 0
BBX 12 9 0 0
BITMAP
1620
7ff0
f7f0
df60
ff60
1ee0
1cc0
18c0
31c0
ENDCHAR
STARTCHAR twosuperior
ENCODING 178
SWIDTH 480 0
DWIDTH 12 0
BBX 12 9 1 0
BITMAP
0a00
3f30
4920
df20
aa60
da40
ff40
efc0
cc80
ENDCHAR
STARTCHAR threesuperior
ENCODING 179
SWIDTH 480 0
DWIDTH 12 0
BBX 12 9 0 0
BITMAP
0e00
3330
7320
3360
6260
46e0
e770
b6e0
ece0
ENDCHAR
STARTCHAR acute
ENCODING 180
SWIDTH 360 0
DWIDTH 9 0
BBX 8 9 1 0
BITMAP
1e
33
49
df
aa
da
f6
e4
c4
ENDCHAR
STARTCHAR mu
ENCODING 181
SWIDTH 360 0
DWIDTH 9 0
BBX 8 9 1 0
BITMAP
0a
3f
49
df
aa
9a
f6
e4
c4
ENDCHAR
STARTCHAR paragraph
ENCODING 182
SWIDTH 360 0
DWIDTH 9 0
BBX 8 9 1 0
BITMAP
1e
33
71
31
42
42
e6
b4
c4
ENDCHAR
STARTCHAR periodcentered
ENCODING 183
SWIDTH 400 0
DWIDTH 10 0
BBX 9 9 1 0
BITMAP
2100
7380
f580
6d00
3b00
7300
6200
6600
c600
ENDCHAR
STARTCHAR cedilla
ENCODING 184
SWIDTH 320 0
DWIDTH 8 0
BBX 9 9 -1 0
BITMAP
0c00
1b80
3c00
0600
1200
3200
2600
2400
fc00
ENDCHAR
STARTCHAR onesuperior
ENCODING 185
SWIDTH 400 0
DWIDTH 10 0
BBX 8 9 1 0
BITMAP
20
63
a2
62
62
4e
75
c5
c6
ENDCHAR
STARTCHAR masculine
ENCODING 186
SWIDTH 360 0
DWIDTH 9 0
BBX 10 9 0 0
BITMAP
1000
28c0
5880
3080
1180
3100
2100
2300
fe00
ENDCHAR
STARTCHAR guillemotright
ENCODING 187
SWIDTH 360 0
DWIDTH 9 0
BBX 12 12 -1 0
BITMAP
0030
0030
0020
1860
3c60
7cc0
38c0
19c0
1180
3180
2380
ff00
ENDCHAR
STARTCHAR onequarter
ENCODING 188
SWIDTH 360 0
DWIDTH 9 0
BBX 10 9 0 0
BITMAP
0800
1cc0
3c80
3180
6580
7d00
7700
e300
c200
ENDCHAR
STARTCHAR onehalf
ENCODING 189
SWIDTH 360 0
DWIDTH 9 0
BBX 12 12 -1 0
BITMAP
0030
0030
0060
0c60
1e60
3ec0
38c0
75c0
6d80
7b80
e380
c300
ENDCHAR
STARTCHAR threequarters
ENCODING 190
SWIDTH 440 0
DWIDTH 11 0
BBX 10 9 1 0
BITMAP
2000
72c0
b680
6e80
7f80
7300
6300
c300
c200
ENDCHAR
STARTCHAR questiondown
ENCODING 191
SWIDTH 440 0
DWIDTH 11 0
BBX 12 12 0 0
BITMAP
0030
0030
0020
3060
7a60
f6c0
7ec0
3fc0
3b80
7380
6380
c300
ENDCHAR
STARTCHAR Agrave
ENCODING 192
SWIDTH 400 0
DWIDTH 10 0
BBX 10 9 -1 0
BITMAP
0380
0dc0
1c40
08c0
1080
1080
7180
a100
c100
ENDCHAR
STARTCHAR Aacute
ENCODING 193
SWIDTH 400 0
DWIDTH 10 0
BBX 10 9 0 0
BITMAP
1000
28c0
2880
3880
1180
3900
fd00
a700
e200
ENDCHAR
STARTCHAR Acircumflex
ENCODING 194
SWIDTH 360 0
DWIDTH 9 0
BBX 9 9 0 0
BITMAP
0800
1580
3900
2900
3300
3200
4200
4600
fc00
ENDCHAR
STARTCHAR Atilde
ENCODING 195
SWIDTH 320 0
DWIDTH 8 0
BBX 8 9 1 0
BITMAP
1c
6f
f8
0c
0c
0c
38
68
70
ENDCHAR
STARTCHAR Adiaeresis
ENCODING 196
SWIDTH 360 0
DWIDTH 9 0
BBX 8 13 1 -4
BITMAP
1e
33
71
31
42
42
e2
a4
c4
04
08
08
08
ENDCHAR
STARTCHAR Aring
ENCODING 197
SWIDTH 360 0
DWIDTH 9 0
BBX 8 9 0 0
BITMAP
1e
33
21
3b
6e
46
e6
94
e4
ENDCHAR
STARTCHAR AE
ENCODING 198
SWIDTH 400 0
DWIDTH 10 0
BBX 10 13 0 -4
BITMAP
0380
0dc0
1c40
08c0
1080
1080
7180
a100
e100
0300
0200
0200
0600
ENDCHAR
STARTCHAR Ccedilla
ENCODING 199
SWIDTH 320 0
DWIDTH 8 0
BBX 7 9 1 0
BITMAP
3c
66
86
06
04
0c
3c
28
38
ENDCHAR
STARTCHAR Egrave
ENCODING 200
SWIDTH 360 0
DWIDTH 9 0
BBX 10 9 0 0
BITMAP
0ec0
3f80
6b00
ff00
ff00
fb00
6600
c600
c600
ENDCHAR
STARTCHAR Eacute
ENCODING 201
SWIDTH 400 0
DWIDTH 10 0
BBX 12 9 -1 0
BITMAP
1800
2c40
7cc0
3fb0
1fe0
17c0
3180
2380
ff00
ENDCHAR
STARTCHAR Ecircumflex
ENCODING 202
SWIDTH 360 0
DWIDTH 9 0
BBX 9 10 0 0
BITMAP
0100
1f00
2300
2300
3e00
4a00
4600
e400
a400
c400
ENDCHAR
STARTCHAR Ediaeresis
ENCODING 203
SWIDTH 400 0
DWIDTH 10 0
BBX 9 9 1 0
BITMAP
2100
7280
f780
6700
3b00
7300
6200
c600
c600
ENDCHAR
STARTCHAR Igrave
ENCODING 204
SWIDTH 440 0
DWIDTH 11 0
BBX 12 10 0 0
BITMAP
00d0
2170
71c0
b4c0
6e80
3f80
7380
6300
c300
c300
ENDCHAR
STARTCHAR Iacute
ENCODING 205
SWIDTH 360 0
DWIDTH 9 0
BBX 8 9 0 0
BITMAP
1e
33
21
31
4a
72
c2
84
fc
ENDCHAR
STARTCHAR Icircumflex
ENCODING 206
SWIDTH 360 0
DWIDTH 9 0
BBX 10 9 0 0
BITMAP
1e40
3380
3f00
0100
7300
5200
e200
c600
fc00
ENDCHAR
STARTCHAR Idiaeresis
ENCODING 207
SWIDTH 320 0
DWIDTH 8 0
BBX 7 8 2 1
BITMAP
20
56
94
ec
fc
08
08
18
ENDCHAR
STARTCHAR ETH
ENCODING 208
SWIDTH 280 0
DWIDTH 7 0
BBX 8 8 0 0
BITMAP
3b
2a
3c
00
00
64
a8
f0
ENDCHAR
STARTCHAR Ntilde
ENCODING 209
SWIDTH 0 0
DWIDTH 0 0
BBX 8 4 -6 10
BITMAP
60
f3
ee
78
ENDCHAR
STARTCHAR Ograve
ENCODING 210
SWIDTH 280 0
DWIDTH 7 0
BBX 6 9 1 0
BITMAP
38
4c
84
0c
08
08
18
10
10
ENDCHAR
STARTCHAR Oacute
ENCODING 211
SWIDTH 280 0
DWIDTH 7 0
BBX 9 13 -3 0
BITMAP
7000
a000
e000
0000
0700
0980
1180
0180
0100
0300
0300
0200
0600
ENDCHAR
STARTCHAR Ocircumflex
ENCODING 212
SWIDTH 0 0
DWIDTH 0 0
BBX 7 4 -8 10
BITMAP
08
36
7a
0e
ENDCHAR
STARTCHAR Otilde
ENCODING 213
SWIDTH 40 0
DWIDTH 1 0
BBX 8 4 -8 10
BITMAP
0b
36
7a
06
ENDCHAR
STARTCHAR Odiaeresis
ENCODING 214
SWIDTH 0 0
DWIDTH 0 0
BBX 8 5 -9 10
BITMAP
02
0d
37
7a
06
ENDCHAR
STARTCHAR multiply
ENCODING 215
SWIDTH 40 0
DWIDTH 1 0
BBX 8 4 -8 10
BITMAP
0f
36
7a
06
ENDCHAR
STARTCHAR Ooblique
ENCODING 216
SWIDTH 0 0
DWIDTH 0 0
BBX 4 5 -5 -6
BITMAP
70
d0
f0
20
60
ENDCHAR
STARTCHAR Ugrave
ENCODING 217
SWIDTH 0 0
DWIDTH 0 0
BBX 6 5 -6 -6
BITMAP
64
9c
e8
68
70
ENDCHAR
STARTCHAR Uacute
ENCODING 218
SWIDTH 0 0
DWIDTH 0 0
BBX 2 2 -3 -3
BITMAP
40
c0
ENDCHAR
STARTCHAR Ucircumflex
ENCODING 219
SWIDTH 0 0
DWIDTH 0 0
BBX 2 1 -3 -6
BITMAP
c0
ENDCHAR
STARTCHAR Udiaeresis
ENCODING 220
SWIDTH 0 0
DWIDTH 0 0
BBX 1 1 0 0
BITMAP
00
ENDCHAR
STARTCHAR Yacute
ENCODING 221
SWIDTH 0 0
DWIDTH 0 0
BBX 1 1 0 0
BITMAP
00
ENDCHAR
STARTCHAR THORN
ENCODING 222
SWIDTH 0 0
DWIDTH 0 0
BBX 1 1 0 0
BITMAP
00
ENDCHAR
STARTCHAR ssharp
ENCODING 223
SWIDTH 400 0
DWIDTH 10 0
BBX 11 12 -1 -1
BITMAP
0100
1fc0
19e0
1ae0
37c0
3f80
27c0
65c0
6980
6f80
fe00
1000
ENDCHAR
STARTCHAR agrave
ENCODING 224
SWIDTH 200 0
DWIDTH 5 0
BBX 4 8 0 0
BITMAP
30
20
60
60
40
f0
b0
e0
ENDCHAR
STARTCHAR aacute
ENCODING 225
SWIDTH 360 0
DWIDTH 9 0
BBX 8 8 0 0
BITMAP
33
22
66
66
44
ff
bb
ee
ENDCHAR
STARTCHAR acircumflex
ENCODING 226
SWIDTH 240 0
DWIDTH 6 0
BBX 8 15 0 0
BITMAP
3f
3a
18
18
18
10
30
30
20
60
60
40
f0
b0
e0
ENDCHAR
STARTCHAR atilde
ENCODING 227
SWIDTH 240 0
DWIDTH 6 0
BBX 5 15 0 0
BITMAP
38
68
68
50
10
10
30
20
20
60
40
40
e0
a0
c0
ENDCHAR
STARTCHAR adiaeresis
ENCODING 228
SWIDTH 280 0
DWIDTH 7 0
BBX 6 15 1 0
BITMAP
5c
5c
78
68
58
10
30
30
20
60
60
40
f0
b0
e0
ENDCHAR
STARTCHAR aring
ENCODING 229
SWIDTH 280 0
DWIDTH 7 0
BBX 6 13 2 -4
BITMAP
38
4c
84
0c
08
08
18
10
10
30
20
20
60
ENDCHAR
STARTCHAR ae
ENCODING 230
SWIDTH 400 0
DWIDTH 10 0
BBX 7 12 3 -3
BITMAP
14
7e
c6
f6
fc
4c
0c
18
18
18
30
e0
ENDCHAR
STARTCHAR ccedilla
ENCODING 231
SWIDTH 0 0
DWIDTH 0 0
BBX 8 5 -8 10
BITMAP
03
7e
c4
fe
dc
ENDCHAR
STARTCHAR egrave
ENCODING 232
SWIDTH 0 0
DWIDTH 0 0
BBX 2 3 -3 15
BITMAP
40
c0
80
ENDCHAR
STARTCHAR eacute
ENCODING 233
SWIDTH 0 0
DWIDTH 0 0
BBX 6 3 -5 15
BITMAP
ec
f8
70
ENDCHAR
STARTCHAR ecircumflex
ENCODING 234
SWIDTH 0 0
DWIDTH 0 0
BBX 7 3 -7 15
BITMAP
7a
ec
f8
ENDCHAR
STARTCHAR ediaeresis
ENCODING 235
SWIDTH 0 0
DWIDTH 0 0
BBX 4 3 -4 15
BITMAP
20
f0
40
ENDCHAR
STARTCHAR igrave
ENCODING 236
SWIDTH 0 0
DWIDTH 0 0
BBX 6 4 -6 14
BITMAP
38
40
e0
c0
ENDCHAR
STARTCHAR iacute
ENCODING 237
SWIDTH 0 0
DWIDTH 0 0
BBX 4 3 -5 10
BITMAP
70
f0
e0
ENDCHAR
STARTCHAR icircumflex
ENCODING 238
SWIDTH 0 0
DWIDTH 0 0
BBX 4 4 -5 12
BITMAP
70
f0
e0
40
ENDCHAR
STARTCHAR idiaeresis
ENCODING 239
SWIDTH 320 0
DWIDTH 8 0
BBX 9 9 0 0
BITMAP
0f00
1180
2c80
5e80
be80
bf00
bd00
c600
7800
ENDCHAR
STARTCHAR eth
ENCODING 240
SWIDTH 360 0
DWIDTH 9 0
BBX 7 6 1 0
BITMAP
3c
46
c2
86
cc
70
ENDCHAR
STARTCHAR ntilde
ENCODING 241
SWIDTH 360 0
DWIDTH 9 0
BBX 8 7 1 -1
BITMAP
1e
63
ff
ff
fe
6c
08
ENDCHAR
STARTCHAR ograve
ENCODING 242
SWIDTH 440 0
DWIDTH 11 0
BBX 9 9 1 0
BITMAP
2000
2000
4000
5f80
5a80
6880
b900
8100
fe00
ENDCHAR
STARTCHAR oacute
ENCODING 243
SWIDTH 400 0
DWIDTH 10 0
BBX 9 6 1 0
BITMAP
3b80
6c80
cc80
e980
a900
fa00
ENDCHAR
STARTCHAR ocircumflex
ENCODING 244
SWIDTH 440 0
DWIDTH 11 0
BBX 12 10 0 0
BITMAP
0010
0030
0020
00c0
3f80
6c00
dc00
dc00
fe00
7f00
ENDCHAR
STARTCHAR otilde
ENCODING 245
SWIDTH 440 0
DWIDTH 11 0
BBX 12 10 0 0
BITMAP
0010
0230
0720
0a40
3f80
6c00
dc00
dc00
fe00
7f00
ENDCHAR
STARTCHAR odiaeresis
ENCODING 246
SWIDTH 320 0
DWIDTH 8 0
BBX 7 10 0 0
BITMAP
20
60
60
6c
7e
06
66
f4
fc
70
ENDCHAR
STARTCHAR division
ENCODING 247
SWIDTH 440 0
DWIDTH 11 0
BBX 12 9 0 0
BITMAP
0030
0020
0060
3f40
6d40
c9c0
f380
d780
e600
ENDCHAR
STARTCHAR oslash
ENCODING 248
SWIDTH 400 0
DWIDTH 10 0
BBX 12 9 0 0
BITMAP
0070
0070
0060
3fe0
7000
e780
ff80
ff80
6f00
ENDCHAR
STARTCHAR ugrave
ENCODING 249
SWIDTH 360 0
DWIDTH 9 0
BBX 10 9 0 0
BITMAP
0040
0040
00c0
3f80
6500
c600
be00
de00
7200
ENDCHAR
STARTCHAR uacute
ENCODING 250
SWIDTH 1000 0
DWIDTH 25 0
BBX 25 1 0 3
BITMAP
ffffff80
ENDCHAR
STARTCHAR ucircumflex
ENCODING 251
SWIDTH 480 0
DWIDTH 12 0
BBX 12 1 0 3
BITMAP
fff0
ENDCHAR
STARTCHAR udiaeresis
ENCODING 252
SWIDTH 0 0
DWIDTH 0 0
BBX 4 5 -5 -10
BITMAP
70
f0
f0
20
60
ENDCHAR
STARTCHAR yacute
ENCODING 253
SWIDTH 0 0
DWIDTH 0 0
BBX 6 5 -7 -10
BITMAP
6c
a8
e8
68
70
ENDCHAR
STARTCHAR thorn
ENCODING 254
SWIDTH 400 0
DWIDTH 10 0
BBX 10 10 1 0
BITMAP
0700
1880
2040
4f40
4a40
9440
9480
9480
8380
7c00
ENDCHAR
STARTCHAR ydiaeresis
ENCODING 255
SWIDTH 0 0
DWIDTH 0 0
BBX 1 1 0 0
BITMAP
00
ENDCHAR
ENDFONT
